<svg width="500" height="500" viewBox="0 0 500 500" fill="none" xmlns="http://www.w3.org/2000/svg">
    <defs>
        <linearGradient id="paint0_linear_6_2" x1="89.976" y1="51" x2="414.569" y2="452.975" gradientUnits="userSpaceOnUse">
            <stop stop-color="#00C0CA"/>
            <stop offset="0.458333" stop-color="#008BBD"/>
            <stop offset="1" stop-color="#004CAD"/>
        </linearGradient>
    </defs>
    <g>
        <ellipse cx="244.5" cy="250" rx="244.5" ry="250" fill="url(#paint0_linear_6_2)"/>
        <path fill="#0070B7" fill-rule="evenodd" clip-rule="evenodd" d="M489 249C489 249 496 384 374 462C279 522.738 175 500.046 123.5 467C54.9368 423.005 36 383.5 20.5 350C20.5 350 9.63636 319.5 5.49998 300C-1.71217 266 7.49995 302.286 73.9679 363.319C167.099 448.836 315.075 439.545 402.966 339.911C479.349 253.322 456.5 111 416 72C410.032 64.627 489 133 489 249Z"/>
        <path fill="white" fill-rule="evenodd" clip-rule="evenodd" d="M80.3542 271.141H142.49C148.406 271.141 152.844 275.578 152.844 282.984V364.427C152.844 367.391 151.365 370.354 148.406 373.313C145.448 374.797 141.01 374.797 138.052 373.313C112.901 359.99 92.1927 342.219 74.4375 320.005C71.4792 315.563 70 312.599 70 306.677V282.984C70 275.578 74.4375 271.141 80.3542 271.141ZM389.542 320.005C373.271 342.219 351.078 359.99 325.932 373.313C322.974 374.797 318.536 374.797 315.573 373.313C312.615 370.354 311.135 367.391 311.135 364.427V99.3646C311.135 93.4427 315.573 89 321.495 89H383.625C389.542 89 393.984 93.4427 393.984 99.3646V306.677C393.984 312.599 392.5 317.042 389.542 320.005ZM256.401 395.526C247.526 395.526 240.13 397.005 232.729 397.005C223.854 397.005 216.458 395.526 209.063 395.526C198.703 394.047 189.828 385.161 189.828 374.797V194.135C189.828 186.734 195.745 182.292 201.667 182.292H262.318C268.234 182.292 274.151 186.734 274.151 194.135V374.797C274.151 385.161 266.755 394.047 256.401 395.526Z"/>
    </g>
</svg>
